<mxfile host="Electron" agent="Mozilla/5.0 (Windows NT 10.0; Win64; x64) AppleWebKit/537.36 (KHTML, like Gecko) draw.io/26.0.16 Chrome/132.0.6834.196 Electron/34.2.0 Safari/537.36" version="26.0.16">
  <diagram name="Seite-1" id="aLYukpr-bXTZTMBZhyfT">
    <mxGraphModel dx="1034" dy="610" grid="1" gridSize="10" guides="1" tooltips="1" connect="1" arrows="1" fold="1" page="1" pageScale="1" pageWidth="827" pageHeight="1169" math="0" shadow="0">
      <root>
        <mxCell id="0" />
        <mxCell id="1" parent="0" />
        <mxCell id="vr7sbktXoA9Wf8e9Qprv-1" value="&lt;strong data-end=&quot;148&quot; data-start=&quot;139&quot;&gt;Spiel&lt;/strong&gt;" style="ellipse;whiteSpace=wrap;html=1;aspect=fixed;" vertex="1" parent="1">
          <mxGeometry x="160" y="100" width="80" height="80" as="geometry" />
        </mxCell>
        <mxCell id="vr7sbktXoA9Wf8e9Qprv-2" value="&lt;strong data-end=&quot;197&quot; data-start=&quot;189&quot;&gt;Team&lt;/strong&gt;" style="ellipse;whiteSpace=wrap;html=1;aspect=fixed;" vertex="1" parent="1">
          <mxGeometry x="390" y="100" width="80" height="80" as="geometry" />
        </mxCell>
        <mxCell id="vr7sbktXoA9Wf8e9Qprv-3" value="&lt;strong data-end=&quot;249&quot; data-start=&quot;238&quot;&gt;Spieler&lt;/strong&gt;" style="ellipse;whiteSpace=wrap;html=1;aspect=fixed;" vertex="1" parent="1">
          <mxGeometry x="160" y="280" width="80" height="80" as="geometry" />
        </mxCell>
        <mxCell id="vr7sbktXoA9Wf8e9Qprv-6" style="edgeStyle=orthogonalEdgeStyle;rounded=0;orthogonalLoop=1;jettySize=auto;html=1;entryX=0.5;entryY=1;entryDx=0;entryDy=0;" edge="1" parent="1" source="vr7sbktXoA9Wf8e9Qprv-4" target="vr7sbktXoA9Wf8e9Qprv-2">
          <mxGeometry relative="1" as="geometry" />
        </mxCell>
        <mxCell id="vr7sbktXoA9Wf8e9Qprv-8" value="Trainiert" style="edgeLabel;html=1;align=center;verticalAlign=middle;resizable=0;points=[];" vertex="1" connectable="0" parent="vr7sbktXoA9Wf8e9Qprv-6">
          <mxGeometry x="-0.1133" y="-3" relative="1" as="geometry">
            <mxPoint as="offset" />
          </mxGeometry>
        </mxCell>
        <mxCell id="vr7sbktXoA9Wf8e9Qprv-4" value="&lt;strong data-end=&quot;321&quot; data-start=&quot;310&quot;&gt;Trainer&lt;/strong&gt;" style="ellipse;whiteSpace=wrap;html=1;aspect=fixed;" vertex="1" parent="1">
          <mxGeometry x="380" y="280" width="80" height="80" as="geometry" />
        </mxCell>
        <mxCell id="vr7sbktXoA9Wf8e9Qprv-9" style="edgeStyle=orthogonalEdgeStyle;rounded=0;orthogonalLoop=1;jettySize=auto;html=1;entryX=0;entryY=0.5;entryDx=0;entryDy=0;" edge="1" parent="1" source="vr7sbktXoA9Wf8e9Qprv-3" target="vr7sbktXoA9Wf8e9Qprv-2">
          <mxGeometry relative="1" as="geometry">
            <Array as="points">
              <mxPoint x="200" y="240" />
              <mxPoint x="320" y="240" />
              <mxPoint x="320" y="140" />
            </Array>
          </mxGeometry>
        </mxCell>
        <mxCell id="vr7sbktXoA9Wf8e9Qprv-10" value="GehÃ¶rt Zu" style="edgeLabel;html=1;align=center;verticalAlign=middle;resizable=0;points=[];" vertex="1" connectable="0" parent="vr7sbktXoA9Wf8e9Qprv-9">
          <mxGeometry x="0.0279" y="-1" relative="1" as="geometry">
            <mxPoint as="offset" />
          </mxGeometry>
        </mxCell>
        <mxCell id="vr7sbktXoA9Wf8e9Qprv-11" style="edgeStyle=orthogonalEdgeStyle;rounded=0;orthogonalLoop=1;jettySize=auto;html=1;entryX=0.967;entryY=0.171;entryDx=0;entryDy=0;entryPerimeter=0;exitX=0.5;exitY=0;exitDx=0;exitDy=0;" edge="1" parent="1" source="vr7sbktXoA9Wf8e9Qprv-2" target="vr7sbktXoA9Wf8e9Qprv-1">
          <mxGeometry relative="1" as="geometry">
            <mxPoint x="370" y="80" as="sourcePoint" />
            <Array as="points">
              <mxPoint x="430" y="80" />
              <mxPoint x="237" y="80" />
            </Array>
          </mxGeometry>
        </mxCell>
        <mxCell id="vr7sbktXoA9Wf8e9Qprv-12" value="Spielt in einem Spiel" style="edgeLabel;html=1;align=center;verticalAlign=middle;resizable=0;points=[];" vertex="1" connectable="0" parent="vr7sbktXoA9Wf8e9Qprv-11">
          <mxGeometry x="-0.3882" y="5" relative="1" as="geometry">
            <mxPoint as="offset" />
          </mxGeometry>
        </mxCell>
        <mxCell id="vr7sbktXoA9Wf8e9Qprv-13" value="Spiel_ID, Datum, Ort, FK Team_ID" style="text;html=1;align=center;verticalAlign=middle;resizable=0;points=[];autosize=1;strokeColor=none;fillColor=none;" vertex="1" parent="1">
          <mxGeometry x="95" y="180" width="210" height="30" as="geometry" />
        </mxCell>
        <mxCell id="vr7sbktXoA9Wf8e9Qprv-14" value="Team_ID, Name, Stadt" style="text;whiteSpace=wrap;html=1;" vertex="1" parent="1">
          <mxGeometry x="470" y="140" width="150" height="40" as="geometry" />
        </mxCell>
        <mxCell id="vr7sbktXoA9Wf8e9Qprv-15" value="Spieler_ID, Name, Position, Geburtsdatum" style="text;whiteSpace=wrap;html=1;" vertex="1" parent="1">
          <mxGeometry x="100" y="360" width="260" height="40" as="geometry" />
        </mxCell>
      </root>
    </mxGraphModel>
  </diagram>
</mxfile>
